<svg id="logo" xmlns="http://www.w3.org/2000/svg" xmlns:xlink="http://www.w3.org/1999/xlink" viewBox="0 0 777.18 532"><defs><style>.cls-1{fill:#59e659;}.cls-2{fill:url(#radial-gradient);}.cls-3{fill:#f75b5a;}.cls-4{fill:url(#linear-gradient);}.cls-5{fill:url(#radial-gradient-2);}</style><radialGradient id="radial-gradient" cx="690.54" cy="236.46" fx="748.8864742165151" fy="206.89863977619342" r="252.81" gradientUnits="userSpaceOnUse"><stop offset="0" stop-color="#59a7f7"/><stop offset="0.08" stop-color="#59a7f7" stop-opacity="0.83"/><stop offset="0.21" stop-color="#59a7f7" stop-opacity="0.58"/><stop offset="0.34" stop-color="#59a7f7" stop-opacity="0.37"/><stop offset="0.45" stop-color="#59a7f7" stop-opacity="0.21"/><stop offset="0.56" stop-color="#59a7f7" stop-opacity="0.1"/><stop offset="0.65" stop-color="#59a7f7" stop-opacity="0.02"/><stop offset="0.72" stop-color="#59a7f7" stop-opacity="0"/></radialGradient><linearGradient id="linear-gradient" x1="118.21" y1="73.28" x2="506.96" y2="297.73" gradientUnits="userSpaceOnUse"><stop offset="0" stop-color="#ffa333"/><stop offset="0.05" stop-color="#ffa333" stop-opacity="0.97"/><stop offset="0.12" stop-color="#ffa333" stop-opacity="0.89"/><stop offset="0.2" stop-color="#ffa333" stop-opacity="0.77"/><stop offset="0.29" stop-color="#ffa333" stop-opacity="0.59"/><stop offset="0.39" stop-color="#ffa333" stop-opacity="0.36"/><stop offset="0.5" stop-color="#ffa333" stop-opacity="0.09"/><stop offset="0.53" stop-color="#ffa333" stop-opacity="0"/></linearGradient><radialGradient id="radial-gradient-2" cx="470.73" cy="411.02" r="192.54" gradientTransform="matrix(-0.6, -0.8, 2.03, -1.51, -82.09, 1409.89)" gradientUnits="userSpaceOnUse"><stop offset="0" stop-color="#ffa333"/><stop offset="0.15" stop-color="#ffa333" stop-opacity="0.8"/><stop offset="0.38" stop-color="#ffa333" stop-opacity="0.52"/><stop offset="0.6" stop-color="#ffa333" stop-opacity="0.3"/><stop offset="0.77" stop-color="#ffa333" stop-opacity="0.14"/><stop offset="0.92" stop-color="#ffa333" stop-opacity="0.04"/><stop offset="1" stop-color="#ffa333" stop-opacity="0"/></radialGradient></defs><title>logo</title><path id="frond" class="cls-1" d="M722.75,162.33S708.8,77.68,693.38,37.49c-2.88-5.85-13-2.68-12,4.57,0,0,22.58,73.91,21.4,112.9,0,0-77.91,6.2-77.73,76.78,0,0,54.15-6.76,68.5-33.65,0,0,1.61,15.44-7.13,40.19,0,0-51.2-27.55-97.46,44.71,0,0,20.43,16.4,52.49,4.35,11.05-3.35,25.82-9.54,26.72-11.55-7.4,5.22-18.83,12.81-25.06,16.26-29.31,18-79.69,53.5-83,86.5,0,0,66.6,39.86,119.9-89.67,0,0,14.54,43.69,31.81,55.29,0,0,65.87-43.35-4.08-94.78,0,0,7.59-22.17,8.42-39.61,0,0,21,46.57,47.34,48.29C763.59,258.06,813.25,205.91,722.75,162.33Z"/><path id="frond-2" data-name="frond" class="cls-2" d="M722.75,162.33S708.8,77.68,693.38,37.49c-2.88-5.85-13-2.68-12,4.57,0,0,22.58,73.91,21.4,112.9,0,0-77.91,6.2-77.73,76.78,0,0,54.15-6.76,68.5-33.65,0,0,1.61,15.44-7.13,40.19,0,0-51.2-27.55-97.46,44.71,0,0,20.43,16.4,52.49,4.35,11.05-3.35,25.82-9.54,26.72-11.55-7.4,5.22-18.83,12.81-25.06,16.26-29.31,18-79.69,53.5-83,86.5,0,0,66.6,39.86,119.9-89.67,0,0,14.54,43.69,31.81,55.29,0,0,65.87-43.35-4.08-94.78,0,0,7.59-22.17,8.42-39.61,0,0,21,46.57,47.34,48.29C763.59,258.06,813.25,205.91,722.75,162.33Z"/><path id="bird" class="cls-3" d="M722.19,128.41a1.51,1.51,0,0,1,0,1.19,1.26,1.26,0,0,1-.82.55c-1.69.5-17.45,4-23.36,4.85-6.52,1.48-83.52-.71-112,107,0,0-10,223-301,193,0,0-75,64-75,97L78,481S273,374,262,312c0,0-203-27-262-214,0,0,127,54,277,17,0,0,20-28-59-115,0,0,237,20,247,145,0,0,104-141,225-45C690,100,720.06,121.85,722.19,128.41Z"/><path id="wings" class="cls-4" d="M465,145c-.13,12.53-2,73.43-50.68,121.23C352.82,326.67,270.26,313.47,262,312c0,0-203-27-262-214,0,0,127,54,277,17,0,0,20-28-59-115C218,0,455,20,465,145Z"/><path id="belly" class="cls-5" d="M722.19,128.41a1.51,1.51,0,0,1,0,1.19,1.26,1.26,0,0,1-.82.55c-1.69.5-17.45,4-23.36,4.85-6.52,1.48-83.52-.71-112,107,0,0-10,223-301,193,0,0-75,64-75,97L78,481S273,374,262,312c0,0-203-27-262-214,0,0,127,54,277,17,0,0,20-28-59-115,0,0,237,20,247,145,0,0,104-141,225-45C690,100,720.06,121.85,722.19,128.41Z"/></svg>